<mxfile host="app.diagrams.net" modified="2023-04-10T09:49:13.814Z" agent="Mozilla/5.0 (Windows NT 10.0; Win64; x64) AppleWebKit/537.36 (KHTML, like Gecko) Chrome/111.0.0.0 Safari/537.36" etag="DDfGW7q2q2CILG1ff8t9" version="21.1.5">
  <diagram name="Page-1" id="RzY90JYD8vgjOidSCQ3r">
    <mxGraphModel dx="740" dy="1566" grid="1" gridSize="10" guides="1" tooltips="1" connect="1" arrows="1" fold="1" page="1" pageScale="1" pageWidth="850" pageHeight="1100" math="0" shadow="0">
      <root>
        <mxCell id="0" />
        <mxCell id="1" parent="0" />
        <mxCell id="4W0E4SJBXrurujkbQEP_-1" value="Router F1" style="rounded=1;whiteSpace=wrap;html=1;" vertex="1" parent="1">
          <mxGeometry x="240" y="200" width="50" height="50" as="geometry" />
        </mxCell>
        <mxCell id="4W0E4SJBXrurujkbQEP_-7" value="&lt;br&gt;&lt;span style=&quot;color: rgb(0, 0, 0); font-family: Helvetica; font-size: 12px; font-style: normal; font-variant-ligatures: normal; font-variant-caps: normal; font-weight: 400; letter-spacing: normal; orphans: 2; text-align: center; text-indent: 0px; text-transform: none; widows: 2; word-spacing: 0px; -webkit-text-stroke-width: 0px; background-color: rgb(251, 251, 251); text-decoration-thickness: initial; text-decoration-style: initial; text-decoration-color: initial; float: none; display: inline !important;&quot;&gt;Switch&lt;br&gt;F1&lt;/span&gt;&lt;br&gt;" style="rounded=0;whiteSpace=wrap;html=1;" vertex="1" parent="1">
          <mxGeometry x="240" y="33.75" width="50" height="30" as="geometry" />
        </mxCell>
        <mxCell id="4W0E4SJBXrurujkbQEP_-19" value="&lt;font style=&quot;font-size: 12px;&quot;&gt;192.168.10.1/26&lt;/font&gt;" style="text;html=1;align=center;verticalAlign=middle;resizable=0;points=[];autosize=1;strokeColor=none;fillColor=none;" vertex="1" parent="1">
          <mxGeometry x="162.5" y="160" width="110" height="30" as="geometry" />
        </mxCell>
        <mxCell id="4W0E4SJBXrurujkbQEP_-20" value="" style="endArrow=none;html=1;rounded=0;entryX=0.5;entryY=1;entryDx=0;entryDy=0;exitX=0.5;exitY=0;exitDx=0;exitDy=0;" edge="1" parent="1" source="4W0E4SJBXrurujkbQEP_-1" target="4W0E4SJBXrurujkbQEP_-7">
          <mxGeometry width="50" height="50" relative="1" as="geometry">
            <mxPoint x="260" y="100" as="sourcePoint" />
            <mxPoint x="310" y="140" as="targetPoint" />
          </mxGeometry>
        </mxCell>
        <mxCell id="4W0E4SJBXrurujkbQEP_-27" value="" style="endArrow=none;html=1;rounded=0;entryX=0.145;entryY=1;entryDx=0;entryDy=-4.06;entryPerimeter=0;" edge="1" parent="1" target="4W0E4SJBXrurujkbQEP_-38">
          <mxGeometry width="50" height="50" relative="1" as="geometry">
            <mxPoint x="250" y="33.75" as="sourcePoint" />
            <mxPoint x="250" y="-16.25" as="targetPoint" />
            <Array as="points" />
          </mxGeometry>
        </mxCell>
        <mxCell id="4W0E4SJBXrurujkbQEP_-32" value="" style="shape=cylinder3;whiteSpace=wrap;html=1;boundedLbl=1;backgroundOutline=1;size=14;" vertex="1" parent="1">
          <mxGeometry x="425" y="-76.25" width="25" height="40" as="geometry" />
        </mxCell>
        <mxCell id="4W0E4SJBXrurujkbQEP_-36" value="" style="shape=cylinder3;whiteSpace=wrap;html=1;boundedLbl=1;backgroundOutline=1;size=14;" vertex="1" parent="1">
          <mxGeometry x="380" y="23.75" width="23" height="40" as="geometry" />
        </mxCell>
        <mxCell id="4W0E4SJBXrurujkbQEP_-38" value="" style="shape=cylinder3;whiteSpace=wrap;html=1;boundedLbl=1;backgroundOutline=1;size=14;" vertex="1" parent="1">
          <mxGeometry x="215" y="-76.25" width="25" height="40" as="geometry" />
        </mxCell>
        <mxCell id="4W0E4SJBXrurujkbQEP_-50" value="&lt;font style=&quot;font-size: 10px;&quot;&gt;10.129 to 10.190&lt;/font&gt;" style="text;html=1;align=center;verticalAlign=middle;resizable=0;points=[];autosize=1;strokeColor=none;fillColor=none;" vertex="1" parent="1">
          <mxGeometry x="177.5" y="-113.75" width="100" height="30" as="geometry" />
        </mxCell>
        <mxCell id="4W0E4SJBXrurujkbQEP_-62" value="&lt;font style=&quot;font-size: 10px;&quot;&gt;vlan 20&lt;br&gt;10.65 to 10.126&lt;/font&gt;" style="text;html=1;align=center;verticalAlign=middle;resizable=0;points=[];autosize=1;strokeColor=none;fillColor=none;" vertex="1" parent="1">
          <mxGeometry x="392.5" y="-143.75" width="90" height="40" as="geometry" />
        </mxCell>
        <mxCell id="4W0E4SJBXrurujkbQEP_-75" value="Router F2" style="rounded=1;whiteSpace=wrap;html=1;" vertex="1" parent="1">
          <mxGeometry x="610" y="200" width="50" height="50" as="geometry" />
        </mxCell>
        <mxCell id="4W0E4SJBXrurujkbQEP_-76" value="&lt;br&gt;&lt;span style=&quot;color: rgb(0, 0, 0); font-family: Helvetica; font-size: 12px; font-style: normal; font-variant-ligatures: normal; font-variant-caps: normal; font-weight: 400; letter-spacing: normal; orphans: 2; text-align: center; text-indent: 0px; text-transform: none; widows: 2; word-spacing: 0px; -webkit-text-stroke-width: 0px; background-color: rgb(251, 251, 251); text-decoration-thickness: initial; text-decoration-style: initial; text-decoration-color: initial; float: none; display: inline !important;&quot;&gt;Switch&lt;br&gt;F2&lt;/span&gt;" style="rounded=0;whiteSpace=wrap;html=1;" vertex="1" parent="1">
          <mxGeometry x="620" y="20" width="50" height="30" as="geometry" />
        </mxCell>
        <mxCell id="4W0E4SJBXrurujkbQEP_-77" value="&lt;font style=&quot;font-size: 9px;&quot;&gt;192.168.10.192/26&lt;/font&gt;" style="text;html=1;align=center;verticalAlign=middle;resizable=0;points=[];autosize=1;strokeColor=none;fillColor=none;" vertex="1" parent="1">
          <mxGeometry x="555" y="60" width="100" height="30" as="geometry" />
        </mxCell>
        <mxCell id="4W0E4SJBXrurujkbQEP_-79" value="" style="endArrow=none;html=1;rounded=0;entryX=0.145;entryY=1;entryDx=0;entryDy=-4.06;entryPerimeter=0;" edge="1" parent="1" target="4W0E4SJBXrurujkbQEP_-82">
          <mxGeometry width="50" height="50" relative="1" as="geometry">
            <mxPoint x="630" y="20" as="sourcePoint" />
            <mxPoint x="630" y="-30" as="targetPoint" />
            <Array as="points" />
          </mxGeometry>
        </mxCell>
        <mxCell id="4W0E4SJBXrurujkbQEP_-80" value="" style="shape=cylinder3;whiteSpace=wrap;html=1;boundedLbl=1;backgroundOutline=1;size=14;" vertex="1" parent="1">
          <mxGeometry x="710" y="-80" width="25" height="40" as="geometry" />
        </mxCell>
        <mxCell id="4W0E4SJBXrurujkbQEP_-81" value="" style="shape=cylinder3;whiteSpace=wrap;html=1;boundedLbl=1;backgroundOutline=1;size=14;" vertex="1" parent="1">
          <mxGeometry x="760" y="10" width="23" height="40" as="geometry" />
        </mxCell>
        <mxCell id="4W0E4SJBXrurujkbQEP_-82" value="" style="shape=cylinder3;whiteSpace=wrap;html=1;boundedLbl=1;backgroundOutline=1;size=14;" vertex="1" parent="1">
          <mxGeometry x="595" y="-90" width="25" height="40" as="geometry" />
        </mxCell>
        <mxCell id="4W0E4SJBXrurujkbQEP_-83" value="" style="endArrow=none;html=1;rounded=0;entryX=0;entryY=0;entryDx=0;entryDy=23;entryPerimeter=0;" edge="1" parent="1" target="4W0E4SJBXrurujkbQEP_-81">
          <mxGeometry width="50" height="50" relative="1" as="geometry">
            <mxPoint x="670" y="30" as="sourcePoint" />
            <mxPoint x="724" y="-34" as="targetPoint" />
          </mxGeometry>
        </mxCell>
        <mxCell id="4W0E4SJBXrurujkbQEP_-84" value="vlan60" style="edgeLabel;html=1;align=center;verticalAlign=middle;resizable=0;points=[];" vertex="1" connectable="0" parent="4W0E4SJBXrurujkbQEP_-83">
          <mxGeometry x="-0.24" y="-9" relative="1" as="geometry">
            <mxPoint x="-124" y="-80" as="offset" />
          </mxGeometry>
        </mxCell>
        <mxCell id="4W0E4SJBXrurujkbQEP_-85" value="&lt;font style=&quot;font-size: 10px;&quot;&gt;10.193 to 10.254&lt;/font&gt;" style="text;html=1;align=center;verticalAlign=middle;resizable=0;points=[];autosize=1;strokeColor=none;fillColor=none;" vertex="1" parent="1">
          <mxGeometry x="720" y="50" width="100" height="30" as="geometry" />
        </mxCell>
        <mxCell id="4W0E4SJBXrurujkbQEP_-86" value="&lt;span style=&quot;font-size: 10px;&quot;&gt;11.65 to 11.126&lt;/span&gt;" style="text;html=1;align=center;verticalAlign=middle;resizable=0;points=[];autosize=1;strokeColor=none;fillColor=none;" vertex="1" parent="1">
          <mxGeometry x="555" y="-143.75" width="90" height="30" as="geometry" />
        </mxCell>
        <mxCell id="4W0E4SJBXrurujkbQEP_-87" value="vlan 40" style="text;html=1;align=center;verticalAlign=middle;resizable=0;points=[];autosize=1;strokeColor=none;fillColor=none;" vertex="1" parent="1">
          <mxGeometry x="780" y="35" width="60" height="30" as="geometry" />
        </mxCell>
        <mxCell id="4W0E4SJBXrurujkbQEP_-89" value="" style="endArrow=none;html=1;rounded=0;entryX=0.145;entryY=1;entryDx=0;entryDy=-4.06;entryPerimeter=0;" edge="1" parent="1" target="4W0E4SJBXrurujkbQEP_-80">
          <mxGeometry width="50" height="50" relative="1" as="geometry">
            <mxPoint x="660" y="20" as="sourcePoint" />
            <mxPoint x="704.4513888888889" y="-26.25" as="targetPoint" />
          </mxGeometry>
        </mxCell>
        <mxCell id="4W0E4SJBXrurujkbQEP_-90" value="vlan50" style="edgeLabel;html=1;align=center;verticalAlign=middle;resizable=0;points=[];" vertex="1" connectable="0" parent="4W0E4SJBXrurujkbQEP_-89">
          <mxGeometry x="-0.24" y="-9" relative="1" as="geometry">
            <mxPoint x="71" y="-48" as="offset" />
          </mxGeometry>
        </mxCell>
        <mxCell id="4W0E4SJBXrurujkbQEP_-91" value="&lt;font style=&quot;font-size: 10px;&quot;&gt;11.1 to 11.62&lt;/font&gt;" style="text;html=1;align=center;verticalAlign=middle;resizable=0;points=[];autosize=1;strokeColor=none;fillColor=none;" vertex="1" parent="1">
          <mxGeometry x="745" y="-140" width="80" height="30" as="geometry" />
        </mxCell>
        <mxCell id="4W0E4SJBXrurujkbQEP_-178" value="Router F3" style="rounded=1;whiteSpace=wrap;html=1;" vertex="1" parent="1">
          <mxGeometry x="252.5" y="320" width="50" height="50" as="geometry" />
        </mxCell>
        <mxCell id="4W0E4SJBXrurujkbQEP_-180" value="&lt;span style=&quot;color: rgb(0, 0, 0); font-family: Helvetica; font-size: 12px; font-style: normal; font-variant-ligatures: normal; font-variant-caps: normal; font-weight: 400; letter-spacing: normal; orphans: 2; text-align: center; text-indent: 0px; text-transform: none; widows: 2; word-spacing: 0px; -webkit-text-stroke-width: 0px; background-color: rgb(251, 251, 251); text-decoration-thickness: initial; text-decoration-style: initial; text-decoration-color: initial; float: none; display: inline !important;&quot;&gt;Switch&lt;br&gt;F3&lt;/span&gt;" style="rounded=0;whiteSpace=wrap;html=1;" vertex="1" parent="1">
          <mxGeometry x="279" y="514.38" width="50" height="50" as="geometry" />
        </mxCell>
        <mxCell id="4W0E4SJBXrurujkbQEP_-183" value="" style="shape=cylinder3;whiteSpace=wrap;html=1;boundedLbl=1;backgroundOutline=1;size=14;" vertex="1" parent="1">
          <mxGeometry x="160" y="639.38" width="25" height="40" as="geometry" />
        </mxCell>
        <mxCell id="4W0E4SJBXrurujkbQEP_-184" value="" style="shape=cylinder3;whiteSpace=wrap;html=1;boundedLbl=1;backgroundOutline=1;size=14;" vertex="1" parent="1">
          <mxGeometry x="372.5" y="609.38" width="23" height="40" as="geometry" />
        </mxCell>
        <mxCell id="4W0E4SJBXrurujkbQEP_-185" value="" style="shape=cylinder3;whiteSpace=wrap;html=1;boundedLbl=1;backgroundOutline=1;size=14;" vertex="1" parent="1">
          <mxGeometry x="150" y="484.38" width="25" height="45" as="geometry" />
        </mxCell>
        <mxCell id="4W0E4SJBXrurujkbQEP_-192" value="" style="endArrow=none;html=1;rounded=0;exitX=0;exitY=1;exitDx=0;exitDy=0;entryX=0.855;entryY=0;entryDx=0;entryDy=4.06;entryPerimeter=0;" edge="1" parent="1" target="4W0E4SJBXrurujkbQEP_-183" source="4W0E4SJBXrurujkbQEP_-180">
          <mxGeometry width="50" height="50" relative="1" as="geometry">
            <mxPoint x="262.5" y="579.38" as="sourcePoint" />
            <mxPoint x="189.16666666666663" y="689.38" as="targetPoint" />
          </mxGeometry>
        </mxCell>
        <mxCell id="4W0E4SJBXrurujkbQEP_-201" value="vlan80" style="edgeLabel;html=1;align=center;verticalAlign=middle;resizable=0;points=[];" vertex="1" connectable="0" parent="1">
          <mxGeometry x="219.99578110446848" y="624.3814271815601" as="geometry">
            <mxPoint x="-7" y="1" as="offset" />
          </mxGeometry>
        </mxCell>
        <mxCell id="4W0E4SJBXrurujkbQEP_-211" value="" style="endArrow=none;html=1;rounded=0;entryX=0.25;entryY=0;entryDx=0;entryDy=0;exitX=1;exitY=0;exitDx=0;exitDy=18.25;exitPerimeter=0;" edge="1" parent="1" source="4W0E4SJBXrurujkbQEP_-185" target="4W0E4SJBXrurujkbQEP_-180">
          <mxGeometry width="50" height="50" relative="1" as="geometry">
            <mxPoint x="172.5" y="529.38" as="sourcePoint" />
            <mxPoint x="267.5" y="567.38" as="targetPoint" />
          </mxGeometry>
        </mxCell>
        <mxCell id="4W0E4SJBXrurujkbQEP_-214" value="vlan70" style="text;html=1;align=center;verticalAlign=middle;resizable=0;points=[];autosize=1;strokeColor=none;fillColor=none;" vertex="1" parent="1">
          <mxGeometry x="142.5" y="524.38" width="60" height="30" as="geometry" />
        </mxCell>
        <mxCell id="4W0E4SJBXrurujkbQEP_-219" value="" style="rounded=0;whiteSpace=wrap;html=1;fillColor=none;strokeColor=#d6b656;strokeWidth=2;" vertex="1" parent="1">
          <mxGeometry x="117.5" y="476.38" width="105" height="82.5" as="geometry" />
        </mxCell>
        <mxCell id="4W0E4SJBXrurujkbQEP_-220" value="" style="rounded=0;whiteSpace=wrap;html=1;fillColor=none;strokeColor=#d6b656;strokeWidth=2;" vertex="1" parent="1">
          <mxGeometry x="150" y="603.13" width="105" height="82.5" as="geometry" />
        </mxCell>
        <mxCell id="4W0E4SJBXrurujkbQEP_-221" value="Router F4" style="rounded=1;whiteSpace=wrap;html=1;" vertex="1" parent="1">
          <mxGeometry x="622.5" y="320" width="50" height="50" as="geometry" />
        </mxCell>
        <mxCell id="4W0E4SJBXrurujkbQEP_-222" value="&lt;br&gt;&lt;span style=&quot;color: rgb(0, 0, 0); font-family: Helvetica; font-size: 12px; font-style: normal; font-variant-ligatures: normal; font-variant-caps: normal; font-weight: 400; letter-spacing: normal; orphans: 2; text-align: center; text-indent: 0px; text-transform: none; widows: 2; word-spacing: 0px; -webkit-text-stroke-width: 0px; background-color: rgb(251, 251, 251); text-decoration-thickness: initial; text-decoration-style: initial; text-decoration-color: initial; float: none; display: inline !important;&quot;&gt;Switch&lt;br&gt;F4&lt;/span&gt;" style="rounded=0;whiteSpace=wrap;html=1;" vertex="1" parent="1">
          <mxGeometry x="745" y="503.75" width="65" height="51.25" as="geometry" />
        </mxCell>
        <mxCell id="4W0E4SJBXrurujkbQEP_-223" value="" style="shape=cylinder3;whiteSpace=wrap;html=1;boundedLbl=1;backgroundOutline=1;size=14;" vertex="1" parent="1">
          <mxGeometry x="673.75" y="609.38" width="22.5" height="40" as="geometry" />
        </mxCell>
        <mxCell id="4W0E4SJBXrurujkbQEP_-224" value="" style="shape=cylinder3;whiteSpace=wrap;html=1;boundedLbl=1;backgroundOutline=1;size=14;" vertex="1" parent="1">
          <mxGeometry x="891" y="592.66" width="23" height="40" as="geometry" />
        </mxCell>
        <mxCell id="4W0E4SJBXrurujkbQEP_-225" value="" style="shape=cylinder3;whiteSpace=wrap;html=1;boundedLbl=1;backgroundOutline=1;size=14;" vertex="1" parent="1">
          <mxGeometry x="592.5" y="484.38" width="25" height="45" as="geometry" />
        </mxCell>
        <mxCell id="4W0E4SJBXrurujkbQEP_-226" value="" style="endArrow=none;html=1;rounded=0;entryX=0;entryY=0;entryDx=0;entryDy=23;entryPerimeter=0;" edge="1" parent="1" source="4W0E4SJBXrurujkbQEP_-222" target="4W0E4SJBXrurujkbQEP_-224">
          <mxGeometry width="50" height="50" relative="1" as="geometry">
            <mxPoint x="865" y="588.1500000000001" as="sourcePoint" />
            <mxPoint x="829" y="484.75" as="targetPoint" />
          </mxGeometry>
        </mxCell>
        <mxCell id="4W0E4SJBXrurujkbQEP_-231" value="" style="endArrow=none;html=1;rounded=0;entryX=0.25;entryY=0;entryDx=0;entryDy=0;exitX=1;exitY=0;exitDx=0;exitDy=18.25;exitPerimeter=0;" edge="1" parent="1" source="4W0E4SJBXrurujkbQEP_-225" target="4W0E4SJBXrurujkbQEP_-222">
          <mxGeometry width="50" height="50" relative="1" as="geometry">
            <mxPoint x="675" y="488.75" as="sourcePoint" />
            <mxPoint x="770" y="526.75" as="targetPoint" />
          </mxGeometry>
        </mxCell>
        <mxCell id="4W0E4SJBXrurujkbQEP_-232" value="" style="endArrow=none;html=1;rounded=0;exitX=0.5;exitY=1;exitDx=0;exitDy=0;entryX=0.5;entryY=0;entryDx=0;entryDy=0;" edge="1" parent="1" source="4W0E4SJBXrurujkbQEP_-221" target="4W0E4SJBXrurujkbQEP_-222">
          <mxGeometry width="50" height="50" relative="1" as="geometry">
            <mxPoint x="613" y="446.75" as="sourcePoint" />
            <mxPoint x="685" y="493.75" as="targetPoint" />
          </mxGeometry>
        </mxCell>
        <mxCell id="4W0E4SJBXrurujkbQEP_-233" value="vlan 100" style="text;html=1;align=center;verticalAlign=middle;resizable=0;points=[];autosize=1;strokeColor=none;fillColor=none;" vertex="1" parent="1">
          <mxGeometry x="580" y="483.13" width="70" height="30" as="geometry" />
        </mxCell>
        <mxCell id="4W0E4SJBXrurujkbQEP_-243" value="" style="endArrow=none;html=1;rounded=0;entryX=1;entryY=0.5;entryDx=0;entryDy=0;exitX=0;exitY=0.5;exitDx=0;exitDy=0;fillColor=#0050ef;strokeColor=#001DBC;" edge="1" parent="1" source="4W0E4SJBXrurujkbQEP_-75" target="4W0E4SJBXrurujkbQEP_-1">
          <mxGeometry width="50" height="50" relative="1" as="geometry">
            <mxPoint x="480" y="185" as="sourcePoint" />
            <mxPoint x="599" y="26" as="targetPoint" />
            <Array as="points" />
          </mxGeometry>
        </mxCell>
        <mxCell id="4W0E4SJBXrurujkbQEP_-245" value="" style="endArrow=none;html=1;rounded=0;entryX=0.5;entryY=1;entryDx=0;entryDy=0;exitX=0.5;exitY=0;exitDx=0;exitDy=0;fillColor=#0050ef;strokeColor=#001DBC;" edge="1" parent="1" source="4W0E4SJBXrurujkbQEP_-178" target="4W0E4SJBXrurujkbQEP_-1">
          <mxGeometry width="50" height="50" relative="1" as="geometry">
            <mxPoint x="620" y="235" as="sourcePoint" />
            <mxPoint x="300" y="235" as="targetPoint" />
            <Array as="points" />
          </mxGeometry>
        </mxCell>
        <mxCell id="4W0E4SJBXrurujkbQEP_-246" value="" style="endArrow=none;html=1;rounded=0;entryX=0;entryY=0.5;entryDx=0;entryDy=0;exitX=1;exitY=0.5;exitDx=0;exitDy=0;fillColor=#0050ef;strokeColor=#001DBC;" edge="1" parent="1" source="4W0E4SJBXrurujkbQEP_-178" target="4W0E4SJBXrurujkbQEP_-221">
          <mxGeometry width="50" height="50" relative="1" as="geometry">
            <mxPoint x="275" y="350" as="sourcePoint" />
            <mxPoint x="275" y="260" as="targetPoint" />
            <Array as="points" />
          </mxGeometry>
        </mxCell>
        <mxCell id="4W0E4SJBXrurujkbQEP_-247" value="" style="endArrow=none;html=1;rounded=0;entryX=0.75;entryY=1;entryDx=0;entryDy=0;exitX=0.5;exitY=0;exitDx=0;exitDy=0;fillColor=#0050ef;strokeColor=#001DBC;" edge="1" parent="1" source="4W0E4SJBXrurujkbQEP_-221" target="4W0E4SJBXrurujkbQEP_-75">
          <mxGeometry width="50" height="50" relative="1" as="geometry">
            <mxPoint x="300" y="375" as="sourcePoint" />
            <mxPoint x="670" y="369" as="targetPoint" />
            <Array as="points" />
          </mxGeometry>
        </mxCell>
        <mxCell id="4W0E4SJBXrurujkbQEP_-248" value="&lt;font style=&quot;font-size: 10px;&quot;&gt;mgmt&lt;/font&gt;" style="text;strokeColor=none;fillColor=none;html=1;fontSize=24;fontStyle=1;verticalAlign=middle;align=center;" vertex="1" parent="1">
          <mxGeometry x="370" y="73.75" width="25" height="5" as="geometry" />
        </mxCell>
        <mxCell id="4W0E4SJBXrurujkbQEP_-250" value="&lt;font style=&quot;font-size: 10px;&quot;&gt;Research&lt;/font&gt;" style="text;strokeColor=none;fillColor=none;html=1;fontSize=24;fontStyle=1;verticalAlign=middle;align=center;" vertex="1" parent="1">
          <mxGeometry x="413" y="-103.75" width="25" height="20" as="geometry" />
        </mxCell>
        <mxCell id="4W0E4SJBXrurujkbQEP_-251" value="&lt;font style=&quot;font-size: 10px;&quot;&gt;HR&lt;/font&gt;" style="text;strokeColor=none;fillColor=none;html=1;fontSize=24;fontStyle=1;verticalAlign=middle;align=center;" vertex="1" parent="1">
          <mxGeometry x="240" y="-36.25" width="25" height="20" as="geometry" />
        </mxCell>
        <mxCell id="4W0E4SJBXrurujkbQEP_-253" value="" style="rounded=0;whiteSpace=wrap;html=1;fillColor=none;strokeColor=#d6b656;strokeWidth=2;" vertex="1" parent="1">
          <mxGeometry x="190" y="-86.25" width="80" height="86.25" as="geometry" />
        </mxCell>
        <mxCell id="4W0E4SJBXrurujkbQEP_-259" value="&lt;font style=&quot;font-size: 10px;&quot;&gt;Logistics &amp;amp; store&lt;/font&gt;" style="text;strokeColor=none;fillColor=none;html=1;fontSize=24;fontStyle=1;verticalAlign=middle;align=center;" vertex="1" parent="1">
          <mxGeometry x="185" y="478.13" width="25" height="1.25" as="geometry" />
        </mxCell>
        <mxCell id="4W0E4SJBXrurujkbQEP_-260" value="&lt;font style=&quot;font-size: 10px;&quot;&gt;Customer Care&lt;/font&gt;" style="text;strokeColor=none;fillColor=none;html=1;fontSize=24;fontStyle=1;verticalAlign=middle;align=center;" vertex="1" parent="1">
          <mxGeometry x="187.5" y="588.13" width="20" as="geometry" />
        </mxCell>
        <mxCell id="4W0E4SJBXrurujkbQEP_-261" value="&lt;font style=&quot;font-size: 10px;&quot;&gt;Guest Care&lt;/font&gt;" style="text;strokeColor=none;fillColor=none;html=1;fontSize=24;fontStyle=1;verticalAlign=middle;align=center;" vertex="1" parent="1">
          <mxGeometry x="370" y="588.13" width="32.5" as="geometry" />
        </mxCell>
        <mxCell id="4W0E4SJBXrurujkbQEP_-263" value="&lt;font style=&quot;font-size: 12px;&quot;&gt;192.168.11.129/26&lt;/font&gt;" style="text;html=1;align=center;verticalAlign=middle;resizable=0;points=[];autosize=1;strokeColor=none;fillColor=none;" vertex="1" parent="1">
          <mxGeometry x="252.5" y="387" width="120" height="30" as="geometry" />
        </mxCell>
        <mxCell id="4W0E4SJBXrurujkbQEP_-268" value="" style="endArrow=none;html=1;rounded=0;exitX=0.5;exitY=0;exitDx=0;exitDy=0;" edge="1" parent="1" source="4W0E4SJBXrurujkbQEP_-7">
          <mxGeometry width="50" height="50" relative="1" as="geometry">
            <mxPoint x="361" y="23.75" as="sourcePoint" />
            <mxPoint x="430" y="-66.25" as="targetPoint" />
            <Array as="points" />
          </mxGeometry>
        </mxCell>
        <mxCell id="4W0E4SJBXrurujkbQEP_-274" value="" style="endArrow=none;html=1;rounded=0;" edge="1" parent="1">
          <mxGeometry width="50" height="50" relative="1" as="geometry">
            <mxPoint x="290" y="43.75" as="sourcePoint" />
            <mxPoint x="380" y="33.75" as="targetPoint" />
          </mxGeometry>
        </mxCell>
        <mxCell id="4W0E4SJBXrurujkbQEP_-275" value="vlan30" style="edgeLabel;html=1;align=center;verticalAlign=middle;resizable=0;points=[];" vertex="1" connectable="0" parent="4W0E4SJBXrurujkbQEP_-274">
          <mxGeometry x="-0.24" y="-9" relative="1" as="geometry">
            <mxPoint x="-90" y="-170" as="offset" />
          </mxGeometry>
        </mxCell>
        <mxCell id="4W0E4SJBXrurujkbQEP_-276" value="&lt;font style=&quot;font-size: 9px;&quot;&gt;192.168.10.0/26&lt;/font&gt;" style="text;html=1;align=center;verticalAlign=middle;resizable=0;points=[];autosize=1;strokeColor=none;fillColor=none;" vertex="1" parent="1">
          <mxGeometry x="287.5" y="33.75" width="90" height="30" as="geometry" />
        </mxCell>
        <mxCell id="4W0E4SJBXrurujkbQEP_-283" value="&lt;font style=&quot;font-size: 9px;&quot;&gt;192.168.10.64/26&lt;/font&gt;" style="text;html=1;align=center;verticalAlign=middle;resizable=0;points=[];autosize=1;strokeColor=none;fillColor=none;" vertex="1" parent="1">
          <mxGeometry x="302.5" y="-56.25" width="90" height="30" as="geometry" />
        </mxCell>
        <mxCell id="4W0E4SJBXrurujkbQEP_-284" value="&lt;font style=&quot;font-size: 9px;&quot;&gt;192.168.10.128/26&lt;/font&gt;" style="text;html=1;align=center;verticalAlign=middle;resizable=0;points=[];autosize=1;strokeColor=none;fillColor=none;" vertex="1" parent="1">
          <mxGeometry x="152.49999999999997" y="-3.1199999999999974" width="100" height="30" as="geometry" />
        </mxCell>
        <mxCell id="4W0E4SJBXrurujkbQEP_-288" value="" style="rounded=0;whiteSpace=wrap;html=1;fillColor=none;strokeColor=#d6b656;strokeWidth=2;" vertex="1" parent="1">
          <mxGeometry x="557.5" y="-113.75" width="100" height="87.5" as="geometry" />
        </mxCell>
        <mxCell id="4W0E4SJBXrurujkbQEP_-289" value="&lt;span style=&quot;font-size: 10px;&quot;&gt;Accounting&lt;/span&gt;" style="text;strokeColor=none;fillColor=none;html=1;fontSize=24;fontStyle=1;verticalAlign=middle;align=center;" vertex="1" parent="1">
          <mxGeometry x="568" y="-117.5" width="27" height="20" as="geometry" />
        </mxCell>
        <mxCell id="4W0E4SJBXrurujkbQEP_-291" value="" style="rounded=0;whiteSpace=wrap;html=1;fillColor=none;strokeColor=#d6b656;strokeWidth=2;" vertex="1" parent="1">
          <mxGeometry x="387.5" y="-103.75" width="100" height="87.5" as="geometry" />
        </mxCell>
        <mxCell id="4W0E4SJBXrurujkbQEP_-292" value="&lt;font style=&quot;font-size: 10px;&quot;&gt;Marketing&lt;/font&gt;" style="text;strokeColor=none;fillColor=none;html=1;fontSize=24;fontStyle=1;verticalAlign=middle;align=center;" vertex="1" parent="1">
          <mxGeometry x="743" y="-100" width="27" height="20" as="geometry" />
        </mxCell>
        <mxCell id="4W0E4SJBXrurujkbQEP_-293" value="&lt;font style=&quot;font-size: 10px;&quot;&gt;Finance&lt;/font&gt;" style="text;strokeColor=none;fillColor=none;html=1;fontSize=24;fontStyle=1;verticalAlign=middle;align=center;" vertex="1" parent="1">
          <mxGeometry x="796.5" y="10" width="27" height="20" as="geometry" />
        </mxCell>
        <mxCell id="4W0E4SJBXrurujkbQEP_-295" value="" style="rounded=0;whiteSpace=wrap;html=1;fillColor=none;strokeColor=#d6b656;strokeWidth=2;" vertex="1" parent="1">
          <mxGeometry x="696.5" y="-110" width="103.5" height="80" as="geometry" />
        </mxCell>
        <mxCell id="4W0E4SJBXrurujkbQEP_-298" value="192.168.10.0/26" style="text;html=1;align=center;verticalAlign=middle;resizable=0;points=[];autosize=1;strokeColor=none;fillColor=none;" vertex="1" parent="1">
          <mxGeometry x="282.5" y="190" width="110" height="30" as="geometry" />
        </mxCell>
        <mxCell id="4W0E4SJBXrurujkbQEP_-303" value="" style="endArrow=none;html=1;rounded=0;entryX=1;entryY=0.25;entryDx=0;entryDy=0;" edge="1" parent="1" source="4W0E4SJBXrurujkbQEP_-180">
          <mxGeometry width="50" height="50" relative="1" as="geometry">
            <mxPoint x="322.5" y="564.38" as="sourcePoint" />
            <mxPoint x="377.5" y="616.88" as="targetPoint" />
          </mxGeometry>
        </mxCell>
        <mxCell id="4W0E4SJBXrurujkbQEP_-305" value="&lt;font size=&quot;1&quot;&gt;11.129 to 11.190&lt;/font&gt;" style="text;html=1;align=center;verticalAlign=middle;resizable=0;points=[];autosize=1;strokeColor=none;fillColor=none;" vertex="1" parent="1">
          <mxGeometry x="120" y="443.75" width="100" height="30" as="geometry" />
        </mxCell>
        <mxCell id="4W0E4SJBXrurujkbQEP_-306" value="&lt;font style=&quot;font-size: 9px;&quot;&gt;11.193 to 11.254&lt;/font&gt;" style="text;html=1;align=center;verticalAlign=middle;resizable=0;points=[];autosize=1;strokeColor=none;fillColor=none;" vertex="1" parent="1">
          <mxGeometry x="172.5" y="679.38" width="90" height="30" as="geometry" />
        </mxCell>
        <mxCell id="4W0E4SJBXrurujkbQEP_-307" value="&lt;font style=&quot;font-size: 9px;&quot;&gt;192.168.11.192/26&lt;/font&gt;" style="text;html=1;align=center;verticalAlign=middle;resizable=0;points=[];autosize=1;strokeColor=none;fillColor=none;" vertex="1" parent="1">
          <mxGeometry x="210" y="558.88" width="100" height="30" as="geometry" />
        </mxCell>
        <mxCell id="4W0E4SJBXrurujkbQEP_-308" value="&lt;font style=&quot;font-size: 9px;&quot;&gt;192.168.12.0/26&lt;/font&gt;" style="text;html=1;align=center;verticalAlign=middle;resizable=0;points=[];autosize=1;strokeColor=none;fillColor=none;" vertex="1" parent="1">
          <mxGeometry x="330" y="554.38" width="90" height="30" as="geometry" />
        </mxCell>
        <mxCell id="4W0E4SJBXrurujkbQEP_-309" value="&lt;font style=&quot;font-size: 9px;&quot;&gt;192.168.11.128/26&lt;/font&gt;" style="text;html=1;align=center;verticalAlign=middle;resizable=0;points=[];autosize=1;strokeColor=none;fillColor=none;" vertex="1" parent="1">
          <mxGeometry x="185" y="502.63" width="100" height="30" as="geometry" />
        </mxCell>
        <mxCell id="4W0E4SJBXrurujkbQEP_-311" value="&lt;font style=&quot;font-size: 9px;&quot;&gt;192.168.12.1 to 192.168.12.62&lt;/font&gt;" style="text;html=1;align=center;verticalAlign=middle;resizable=0;points=[];autosize=1;strokeColor=none;fillColor=none;" vertex="1" parent="1">
          <mxGeometry x="322.5" y="670.6300000000001" width="150" height="30" as="geometry" />
        </mxCell>
        <mxCell id="4W0E4SJBXrurujkbQEP_-312" value="vlan90" style="text;html=1;align=center;verticalAlign=middle;resizable=0;points=[];autosize=1;strokeColor=none;fillColor=none;" vertex="1" parent="1">
          <mxGeometry x="322.5" y="624.38" width="60" height="30" as="geometry" />
        </mxCell>
        <mxCell id="4W0E4SJBXrurujkbQEP_-314" value="vlan10&lt;br&gt;10.1 to 10.62" style="text;html=1;align=center;verticalAlign=middle;resizable=0;points=[];autosize=1;strokeColor=none;fillColor=none;" vertex="1" parent="1">
          <mxGeometry x="375" y="43.75" width="90" height="40" as="geometry" />
        </mxCell>
        <mxCell id="4W0E4SJBXrurujkbQEP_-318" value="&lt;font style=&quot;font-size: 9px;&quot;&gt;192.168.10.192/26&lt;/font&gt;" style="text;html=1;align=center;verticalAlign=middle;resizable=0;points=[];autosize=1;strokeColor=none;fillColor=none;" vertex="1" parent="1">
          <mxGeometry x="660" y="5" width="100" height="30" as="geometry" />
        </mxCell>
        <mxCell id="4W0E4SJBXrurujkbQEP_-321" value="&lt;font style=&quot;font-size: 9px;&quot;&gt;192.168.11.0/26&lt;/font&gt;" style="text;html=1;align=center;verticalAlign=middle;resizable=0;points=[];autosize=1;strokeColor=none;fillColor=none;" vertex="1" parent="1">
          <mxGeometry x="687.5" y="-30" width="90" height="30" as="geometry" />
        </mxCell>
        <mxCell id="4W0E4SJBXrurujkbQEP_-322" value="&lt;font style=&quot;font-size: 9px;&quot;&gt;192.168.11.64/26&lt;/font&gt;" style="text;html=1;align=center;verticalAlign=middle;resizable=0;points=[];autosize=1;strokeColor=none;fillColor=none;" vertex="1" parent="1">
          <mxGeometry x="539.25" y="-20" width="90" height="30" as="geometry" />
        </mxCell>
        <mxCell id="4W0E4SJBXrurujkbQEP_-324" value="&lt;span style=&quot;color: rgb(0, 0, 0); font-family: Helvetica; font-style: normal; font-variant-ligatures: normal; font-variant-caps: normal; font-weight: 400; letter-spacing: normal; orphans: 2; text-align: center; text-indent: 0px; text-transform: none; widows: 2; word-spacing: 0px; -webkit-text-stroke-width: 0px; background-color: rgb(251, 251, 251); text-decoration-thickness: initial; text-decoration-style: initial; text-decoration-color: initial; float: none; display: inline !important;&quot;&gt;&lt;font style=&quot;font-size: 12px;&quot;&gt;192.168.12.64/26&lt;/font&gt;&lt;/span&gt;" style="text;whiteSpace=wrap;html=1;" vertex="1" parent="1">
          <mxGeometry x="651.75" y="250" width="75" height="20" as="geometry" />
        </mxCell>
        <mxCell id="4W0E4SJBXrurujkbQEP_-338" value="vlan 120" style="text;html=1;align=center;verticalAlign=middle;resizable=0;points=[];autosize=1;strokeColor=none;fillColor=none;" vertex="1" parent="1">
          <mxGeometry x="857.5" y="617.35" width="70" height="30" as="geometry" />
        </mxCell>
        <mxCell id="4W0E4SJBXrurujkbQEP_-341" value="" style="rounded=0;whiteSpace=wrap;html=1;fillColor=none;strokeColor=#d6b656;strokeWidth=2;" vertex="1" parent="1">
          <mxGeometry x="322.5" y="579.38" width="145" height="98.75" as="geometry" />
        </mxCell>
        <mxCell id="4W0E4SJBXrurujkbQEP_-342" style="edgeStyle=orthogonalEdgeStyle;rounded=0;orthogonalLoop=1;jettySize=auto;html=1;exitX=0;exitY=0;exitDx=0;exitDy=0;entryX=0.04;entryY=0.087;entryDx=0;entryDy=0;entryPerimeter=0;" edge="1" parent="1" source="4W0E4SJBXrurujkbQEP_-341" target="4W0E4SJBXrurujkbQEP_-341">
          <mxGeometry relative="1" as="geometry" />
        </mxCell>
        <mxCell id="4W0E4SJBXrurujkbQEP_-346" value="&lt;font style=&quot;font-size: 10px;&quot;&gt;Administration&lt;/font&gt;" style="text;strokeColor=none;fillColor=none;html=1;fontSize=24;fontStyle=1;verticalAlign=middle;align=center;" vertex="1" parent="1">
          <mxGeometry x="535" y="471.26" width="122.5" height="1.25" as="geometry" />
        </mxCell>
        <mxCell id="4W0E4SJBXrurujkbQEP_-348" value="&lt;font style=&quot;font-size: 10px;&quot;&gt;Server Room&lt;/font&gt;" style="text;strokeColor=none;fillColor=none;html=1;fontSize=24;fontStyle=1;verticalAlign=middle;align=center;" vertex="1" parent="1">
          <mxGeometry x="927.5" y="564.38" width="25" height="80.62" as="geometry" />
        </mxCell>
        <mxCell id="4W0E4SJBXrurujkbQEP_-351" value="&lt;div style=&quot;text-align: center;&quot;&gt;&lt;span style=&quot;background-color: initial;&quot;&gt;12.65 to 12.126&lt;/span&gt;&lt;/div&gt;" style="text;whiteSpace=wrap;html=1;" vertex="1" parent="1">
          <mxGeometry x="560" y="524.38" width="97.5" height="20" as="geometry" />
        </mxCell>
        <mxCell id="4W0E4SJBXrurujkbQEP_-352" value="&lt;div style=&quot;text-align: center;&quot;&gt;&lt;span style=&quot;background-color: initial;&quot;&gt;12.129 to 12.190&lt;/span&gt;&lt;/div&gt;" style="text;whiteSpace=wrap;html=1;" vertex="1" parent="1">
          <mxGeometry x="647.5" y="654.38" width="97.5" height="20" as="geometry" />
        </mxCell>
        <mxCell id="4W0E4SJBXrurujkbQEP_-356" value="&lt;div style=&quot;text-align: center;&quot;&gt;&lt;span style=&quot;background-color: initial;&quot;&gt;&lt;font style=&quot;font-size: 9px;&quot;&gt;192.168.12.192/26&lt;/font&gt;&lt;/span&gt;&lt;/div&gt;" style="text;whiteSpace=wrap;html=1;" vertex="1" parent="1">
          <mxGeometry x="825" y="544.38" width="97.5" height="20" as="geometry" />
        </mxCell>
        <mxCell id="4W0E4SJBXrurujkbQEP_-358" value="&lt;span style=&quot;color: rgb(0, 0, 0); font-family: Helvetica; font-size: 9px; font-style: normal; font-variant-ligatures: normal; font-variant-caps: normal; font-weight: 400; letter-spacing: normal; orphans: 2; text-align: center; text-indent: 0px; text-transform: none; widows: 2; word-spacing: 0px; -webkit-text-stroke-width: 0px; background-color: rgb(251, 251, 251); text-decoration-thickness: initial; text-decoration-style: initial; text-decoration-color: initial; float: none; display: inline !important;&quot;&gt;192.168.12.64/26&lt;/span&gt;" style="text;whiteSpace=wrap;html=1;" vertex="1" parent="1">
          <mxGeometry x="557.5" y="449.38" width="100" height="40" as="geometry" />
        </mxCell>
        <mxCell id="4W0E4SJBXrurujkbQEP_-360" value="&lt;font style=&quot;font-size: 10px;&quot;&gt;ICT&lt;/font&gt;" style="text;strokeColor=none;fillColor=none;html=1;fontSize=24;fontStyle=1;verticalAlign=middle;align=center;" vertex="1" parent="1">
          <mxGeometry x="673.75" y="628.7600000000001" width="82.5" height="20.62" as="geometry" />
        </mxCell>
        <mxCell id="4W0E4SJBXrurujkbQEP_-366" value="&lt;div style=&quot;text-align: center;&quot;&gt;&lt;span style=&quot;background-color: initial;&quot;&gt;12.193 to 12.197&lt;/span&gt;&lt;/div&gt;" style="text;whiteSpace=wrap;html=1;" vertex="1" parent="1">
          <mxGeometry x="850" y="636.1" width="97.5" height="20" as="geometry" />
        </mxCell>
        <mxCell id="4W0E4SJBXrurujkbQEP_-372" value="&lt;font style=&quot;font-size: 12px;&quot;&gt;192.168.11.128/26&lt;/font&gt;" style="text;html=1;align=center;verticalAlign=middle;resizable=0;points=[];autosize=1;strokeColor=none;fillColor=none;" vertex="1" parent="1">
          <mxGeometry x="265" y="250" width="120" height="30" as="geometry" />
        </mxCell>
        <mxCell id="4W0E4SJBXrurujkbQEP_-374" value="&lt;span style=&quot;color: rgb(0, 0, 0); font-family: Helvetica; font-style: normal; font-variant-ligatures: normal; font-variant-caps: normal; font-weight: 400; letter-spacing: normal; orphans: 2; text-align: center; text-indent: 0px; text-transform: none; widows: 2; word-spacing: 0px; -webkit-text-stroke-width: 0px; background-color: rgb(251, 251, 251); text-decoration-thickness: initial; text-decoration-style: initial; text-decoration-color: initial; float: none; display: inline !important;&quot;&gt;&lt;font style=&quot;font-size: 12px;&quot;&gt;192.168.12.64/26&lt;/font&gt;&lt;/span&gt;" style="text;whiteSpace=wrap;html=1;" vertex="1" parent="1">
          <mxGeometry x="520" y="320" width="75" height="20" as="geometry" />
        </mxCell>
        <mxCell id="4W0E4SJBXrurujkbQEP_-377" value="" style="endArrow=none;html=1;rounded=0;exitX=0.5;exitY=1;exitDx=0;exitDy=0;" edge="1" parent="1" source="4W0E4SJBXrurujkbQEP_-178" target="4W0E4SJBXrurujkbQEP_-180">
          <mxGeometry width="50" height="50" relative="1" as="geometry">
            <mxPoint x="278" y="370" as="sourcePoint" />
            <mxPoint x="290" y="438.75" as="targetPoint" />
          </mxGeometry>
        </mxCell>
        <mxCell id="4W0E4SJBXrurujkbQEP_-392" value="192.168.192.0/26" style="text;html=1;align=center;verticalAlign=middle;resizable=0;points=[];autosize=1;strokeColor=none;fillColor=none;" vertex="1" parent="1">
          <mxGeometry x="629.25" y="170" width="120" height="30" as="geometry" />
        </mxCell>
        <mxCell id="4W0E4SJBXrurujkbQEP_-394" value="&lt;font style=&quot;font-size: 12px;&quot;&gt;192.168.11.128/26&lt;/font&gt;" style="text;html=1;align=center;verticalAlign=middle;resizable=0;points=[];autosize=1;strokeColor=none;fillColor=none;" vertex="1" parent="1">
          <mxGeometry x="302.5" y="315" width="120" height="30" as="geometry" />
        </mxCell>
        <mxCell id="4W0E4SJBXrurujkbQEP_-403" value="" style="rounded=0;whiteSpace=wrap;html=1;fillColor=none;strokeColor=#d6b656;strokeWidth=2;" vertex="1" parent="1">
          <mxGeometry x="370" y="20" width="100" height="90" as="geometry" />
        </mxCell>
        <mxCell id="4W0E4SJBXrurujkbQEP_-407" value="" style="rounded=0;whiteSpace=wrap;html=1;fillColor=none;strokeColor=#d6b656;strokeWidth=2;" vertex="1" parent="1">
          <mxGeometry x="733.25" y="5" width="103.5" height="80" as="geometry" />
        </mxCell>
        <mxCell id="4W0E4SJBXrurujkbQEP_-408" value="" style="endArrow=none;html=1;rounded=0;entryX=0.5;entryY=1;entryDx=0;entryDy=0;exitX=0.012;exitY=1.089;exitDx=0;exitDy=0;exitPerimeter=0;" edge="1" parent="1" source="4W0E4SJBXrurujkbQEP_-392">
          <mxGeometry width="50" height="50" relative="1" as="geometry">
            <mxPoint x="645" y="190" as="sourcePoint" />
            <mxPoint x="645" y="54" as="targetPoint" />
          </mxGeometry>
        </mxCell>
        <mxCell id="4W0E4SJBXrurujkbQEP_-410" value="" style="rounded=0;whiteSpace=wrap;html=1;fillColor=none;fontColor=#ffffff;strokeColor=#3A5431;strokeWidth=2;" vertex="1" parent="1">
          <mxGeometry x="160" y="-150" width="380" height="290" as="geometry" />
        </mxCell>
        <mxCell id="4W0E4SJBXrurujkbQEP_-411" value="" style="rounded=0;whiteSpace=wrap;html=1;fillColor=none;fontColor=#ffffff;strokeColor=#3A5431;strokeWidth=2;" vertex="1" parent="1">
          <mxGeometry x="550" y="-150" width="320" height="290" as="geometry" />
        </mxCell>
        <mxCell id="4W0E4SJBXrurujkbQEP_-415" value="" style="endArrow=none;html=1;rounded=0;exitX=1;exitY=0;exitDx=0;exitDy=14;entryX=0;entryY=1;entryDx=0;entryDy=0;exitPerimeter=0;" edge="1" parent="1" source="4W0E4SJBXrurujkbQEP_-223" target="4W0E4SJBXrurujkbQEP_-222">
          <mxGeometry width="50" height="50" relative="1" as="geometry">
            <mxPoint x="692.5" y="585" as="sourcePoint" />
            <mxPoint x="745" y="542" as="targetPoint" />
          </mxGeometry>
        </mxCell>
        <mxCell id="4W0E4SJBXrurujkbQEP_-414" value="&lt;div style=&quot;text-align: center;&quot;&gt;&lt;span style=&quot;background-color: initial;&quot;&gt;&lt;font style=&quot;font-size: 9px;&quot;&gt;192.168.12.128/26&lt;/font&gt;&lt;/span&gt;&lt;/div&gt;" style="text;whiteSpace=wrap;html=1;" vertex="1" parent="1">
          <mxGeometry x="655" y="554.94" width="97.5" height="28.88" as="geometry" />
        </mxCell>
        <mxCell id="4W0E4SJBXrurujkbQEP_-416" value="&lt;div style=&quot;text-align: center;&quot;&gt;&lt;span style=&quot;background-color: initial;&quot;&gt;&lt;font style=&quot;font-size: 9px;&quot;&gt;192.168.12.64/26&lt;/font&gt;&lt;/span&gt;&lt;/div&gt;" style="text;whiteSpace=wrap;html=1;" vertex="1" parent="1">
          <mxGeometry x="662.5" y="478.13" width="97.5" height="20" as="geometry" />
        </mxCell>
        <mxCell id="4W0E4SJBXrurujkbQEP_-427" value="" style="rounded=0;whiteSpace=wrap;html=1;fillColor=none;strokeColor=#d6b656;strokeWidth=2;" vertex="1" parent="1">
          <mxGeometry x="840" y="580.63" width="140" height="89.37" as="geometry" />
        </mxCell>
        <mxCell id="4W0E4SJBXrurujkbQEP_-430" value="" style="rounded=0;whiteSpace=wrap;html=1;fillColor=none;fontColor=#ffffff;strokeColor=#3A5431;strokeWidth=2;" vertex="1" parent="1">
          <mxGeometry x="100" y="443.75" width="372.5" height="266.87" as="geometry" />
        </mxCell>
        <mxCell id="4W0E4SJBXrurujkbQEP_-431" value="" style="rounded=0;whiteSpace=wrap;html=1;fillColor=none;strokeColor=#d6b656;strokeWidth=2;" vertex="1" parent="1">
          <mxGeometry x="540.75" y="451" width="119.25" height="98.75" as="geometry" />
        </mxCell>
        <mxCell id="4W0E4SJBXrurujkbQEP_-432" value="" style="rounded=0;whiteSpace=wrap;html=1;fillColor=none;strokeColor=#d6b656;strokeWidth=2;" vertex="1" parent="1">
          <mxGeometry x="629.25" y="594.39" width="140" height="89.37" as="geometry" />
        </mxCell>
        <mxCell id="4W0E4SJBXrurujkbQEP_-434" value="" style="rounded=0;whiteSpace=wrap;html=1;fillColor=none;fontColor=#ffffff;strokeColor=#3A5431;strokeWidth=2;" vertex="1" parent="1">
          <mxGeometry x="517.5" y="442.51" width="472.5" height="277.49" as="geometry" />
        </mxCell>
        <mxCell id="4W0E4SJBXrurujkbQEP_-435" value="First Floor" style="text;html=1;align=center;verticalAlign=middle;resizable=0;points=[];autosize=1;strokeColor=none;fillColor=none;" vertex="1" parent="1">
          <mxGeometry x="70" y="85" width="80" height="30" as="geometry" />
        </mxCell>
        <mxCell id="4W0E4SJBXrurujkbQEP_-436" value="Second Floor" style="text;html=1;align=center;verticalAlign=middle;resizable=0;points=[];autosize=1;strokeColor=none;fillColor=none;" vertex="1" parent="1">
          <mxGeometry x="855" y="105" width="90" height="30" as="geometry" />
        </mxCell>
        <mxCell id="4W0E4SJBXrurujkbQEP_-437" value="Fourth Floor" style="text;html=1;align=center;verticalAlign=middle;resizable=0;points=[];autosize=1;strokeColor=none;fillColor=none;" vertex="1" parent="1">
          <mxGeometry x="845" y="405" width="90" height="30" as="geometry" />
        </mxCell>
        <mxCell id="4W0E4SJBXrurujkbQEP_-438" value="Third Floor" style="text;html=1;align=center;verticalAlign=middle;resizable=0;points=[];autosize=1;strokeColor=none;fillColor=none;" vertex="1" parent="1">
          <mxGeometry x="92.5" y="413.75" width="80" height="30" as="geometry" />
        </mxCell>
        <mxCell id="4W0E4SJBXrurujkbQEP_-439" value="L3 switch" style="rounded=0;whiteSpace=wrap;html=1;" vertex="1" parent="1">
          <mxGeometry x="240" y="90" width="50" height="30" as="geometry" />
        </mxCell>
        <mxCell id="4W0E4SJBXrurujkbQEP_-440" value="L3 switch" style="rounded=0;whiteSpace=wrap;html=1;" vertex="1" parent="1">
          <mxGeometry x="270" y="459.38" width="50" height="30" as="geometry" />
        </mxCell>
        <mxCell id="4W0E4SJBXrurujkbQEP_-442" value="L3 switch" style="rounded=0;whiteSpace=wrap;html=1;" vertex="1" parent="1">
          <mxGeometry x="617.5" y="100" width="50" height="30" as="geometry" />
        </mxCell>
        <mxCell id="4W0E4SJBXrurujkbQEP_-445" value="L3 switch" style="rounded=0;whiteSpace=wrap;html=1;" vertex="1" parent="1">
          <mxGeometry x="710" y="451" width="50" height="30" as="geometry" />
        </mxCell>
      </root>
    </mxGraphModel>
  </diagram>
</mxfile>
